<svg width="81" height="103" viewBox="0 0 81 103" fill="none" xmlns="http://www.w3.org/2000/svg">
<path d="M6.75 102.75C4.95 102.75 3.375 101.979 2.025 100.438C0.675 98.8969 0 97.0988 0 95.0438V15.4125C0 13.3575 0.675 11.5594 2.025 10.0181C3.375 8.47688 4.95 7.70625 6.75 7.70625H14.0625V0H21.375V7.70625H59.625V0H66.9375V7.70625H74.25C76.05 7.70625 77.625 8.47688 78.975 10.0181C80.325 11.5594 81 13.3575 81 15.4125V95.0438C81 97.0988 80.325 98.8969 78.975 100.438C77.625 101.979 76.05 102.75 74.25 102.75H6.75ZM6.75 95.0438H74.25V39.8156H6.75V95.0438ZM6.75 32.1094H74.25V15.4125H6.75V32.1094ZM40.5 61.65C39.225 61.65 38.1562 61.1577 37.2938 60.173C36.4312 59.1883 36 57.9681 36 56.5125C36 55.0569 36.4312 53.8367 37.2938 52.852C38.1562 51.8673 39.225 51.375 40.5 51.375C41.775 51.375 42.8438 51.8673 43.7062 52.852C44.5687 53.8367 45 55.0569 45 56.5125C45 57.9681 44.5687 59.1883 43.7062 60.173C42.8438 61.1577 41.775 61.65 40.5 61.65ZM22.5 61.65C21.225 61.65 20.1562 61.1577 19.2937 60.173C18.4312 59.1883 18 57.9681 18 56.5125C18 55.0569 18.4312 53.8367 19.2937 52.852C20.1562 51.8673 21.225 51.375 22.5 51.375C23.775 51.375 24.8438 51.8673 25.7062 52.852C26.5687 53.8367 27 55.0569 27 56.5125C27 57.9681 26.5687 59.1883 25.7062 60.173C24.8438 61.1577 23.775 61.65 22.5 61.65ZM58.5 61.65C57.225 61.65 56.1562 61.1577 55.2937 60.173C54.4312 59.1883 54 57.9681 54 56.5125C54 55.0569 54.4312 53.8367 55.2937 52.852C56.1562 51.8673 57.225 51.375 58.5 51.375C59.775 51.375 60.8438 51.8673 61.7062 52.852C62.5687 53.8367 63 55.0569 63 56.5125C63 57.9681 62.5687 59.1883 61.7062 60.173C60.8438 61.1577 59.775 61.65 58.5 61.65ZM40.5 82.2C39.225 82.2 38.1562 81.7077 37.2938 80.723C36.4312 79.7383 36 78.5181 36 77.0625C36 75.6069 36.4312 74.3867 37.2938 73.402C38.1562 72.4173 39.225 71.925 40.5 71.925C41.775 71.925 42.8438 72.4173 43.7062 73.402C44.5687 74.3867 45 75.6069 45 77.0625C45 78.5181 44.5687 79.7383 43.7062 80.723C42.8438 81.7077 41.775 82.2 40.5 82.2ZM22.5 82.2C21.225 82.2 20.1562 81.7077 19.2937 80.723C18.4312 79.7383 18 78.5181 18 77.0625C18 75.6069 18.4312 74.3867 19.2937 73.402C20.1562 72.4173 21.225 71.925 22.5 71.925C23.775 71.925 24.8438 72.4173 25.7062 73.402C26.5687 74.3867 27 75.6069 27 77.0625C27 78.5181 26.5687 79.7383 25.7062 80.723C24.8438 81.7077 23.775 82.2 22.5 82.2ZM58.5 82.2C57.225 82.2 56.1562 81.7077 55.2937 80.723C54.4312 79.7383 54 78.5181 54 77.0625C54 75.6069 54.4312 74.3867 55.2937 73.402C56.1562 72.4173 57.225 71.925 58.5 71.925C59.775 71.925 60.8438 72.4173 61.7062 73.402C62.5687 74.3867 63 75.6069 63 77.0625C63 78.5181 62.5687 79.7383 61.7062 80.723C60.8438 81.7077 59.775 82.2 58.5 82.2Z" fill="black"/>
</svg>
