<svg width="43" height="102" viewBox="0 0 43 102" fill="none" xmlns="http://www.w3.org/2000/svg">
<path d="M17.8352 101.608V89.754C13.1932 88.8132 9.38589 86.7669 6.41335 83.6152C3.44081 80.4634 1.30303 76.4885 0 71.6903L6.84091 68.4445C8.22538 72.9604 10.2206 76.3238 12.8267 78.5348C15.4328 80.7457 18.5682 81.8512 22.233 81.8512C26.142 81.8512 29.3589 80.7222 31.8835 78.4642C34.4081 76.2062 35.6705 73.1015 35.6705 69.1501C35.6705 65.0105 34.5507 61.8117 32.3111 59.5538C30.0715 57.2958 25.857 54.9908 19.6676 52.6388C13.804 50.4749 9.42661 47.6054 6.53551 44.0303C3.64441 40.4552 2.19886 35.9863 2.19886 30.6236C2.19886 25.4491 3.64441 21.1214 6.53551 17.6403C9.42661 14.1593 13.1932 12.1836 17.8352 11.7132V0H25.1648V11.7132C28.8295 12.1836 31.9853 13.5713 34.6321 15.8763C37.2789 18.1813 39.2945 21.1214 40.679 24.6965L33.8381 28.0834C32.6979 25.0728 31.1709 22.8854 29.2571 21.5212C27.3433 20.157 24.839 19.4749 21.7443 19.4749C17.9981 19.4749 15.0256 20.4628 12.8267 22.4385C10.6278 24.4142 9.52841 27.0956 9.52841 30.4825C9.52841 34.0576 10.75 36.9506 13.1932 39.1615C15.6364 41.3725 20.1562 43.6539 26.7528 46.006C32.2907 47.9817 36.383 50.8277 39.0298 54.5439C41.6766 58.2601 43 62.9407 43 68.5856C43 74.5128 41.4934 79.2874 38.4801 82.9096C35.4669 86.5317 31.0284 88.8602 25.1648 89.8951V101.608H17.8352Z" fill="black"/>
</svg>
