<svg width="40" height="40" viewBox="0 0 40 40" fill="none" xmlns="http://www.w3.org/2000/svg">
<path d="M36 20C36 11.1625 28.8375 4 20 4C11.1625 4 4 11.1625 4 20C4 27.5 9.16875 33.8 16.1375 35.5313V24.8875H12.8375V20H16.1375V17.8938C16.1375 12.45 18.6 9.925 23.95 9.925C24.9625 9.925 26.7125 10.125 27.4312 10.325V14.75C27.0562 14.7125 26.4 14.6875 25.5812 14.6875C22.9562 14.6875 21.9437 15.6813 21.9437 18.2625V20H27.1687L26.2687 24.8875H21.9375V35.8813C29.8625 34.925 36 28.1813 36 20Z" fill="#202020"/>
</svg>
