<svg width="108" height="102" viewBox="0 0 108 102" fill="none" xmlns="http://www.w3.org/2000/svg">
<path d="M54 0L108 46.224L103.827 52.8476L93.2727 43.6874V101.608H14.7273V43.6874L4.17273 52.8476L0 46.224L54 0ZM33.1364 51.1565C33.1364 55.6661 35.2636 60.7865 39.5182 66.5175C43.7727 72.2485 48.6 77.8856 54 83.4287C59.4 77.8856 64.2273 72.2485 68.4818 66.5175C72.7364 60.7865 74.8636 55.6661 74.8636 51.1565C74.8636 47.4924 73.8205 44.4625 71.7341 42.0667C69.6477 39.6709 67.0091 38.4731 63.8182 38.4731C61.9364 38.4731 60.1364 39.0133 58.4182 40.0937C56.7 41.1742 55.2273 42.466 54 43.9692C52.7727 42.466 51.3 41.1742 49.5818 40.0937C47.8636 39.0133 46.0636 38.4731 44.1818 38.4731C40.9909 38.4731 38.3523 39.6709 36.2659 42.0667C34.1795 44.4625 33.1364 47.4924 33.1364 51.1565ZM85.9091 93.1527V37.9093L54 10.5695L22.0909 37.9093V93.1527H85.9091Z" fill="black"/>
</svg>
