<svg width="40" height="40" viewBox="0 0 40 40" fill="none" xmlns="http://www.w3.org/2000/svg">
<path d="M20.0187 12.8125C16.05 12.8 12.825 16.0125 12.8125 19.9813C12.8 23.95 16.0125 27.175 19.9813 27.1875C23.95 27.2 27.175 23.9875 27.1875 20.0188C27.2 16.05 23.9875 12.825 20.0187 12.8125ZM19.9813 15.3375C22.5563 15.325 24.65 17.4063 24.6625 19.9813C24.675 22.5563 22.5938 24.65 20.0187 24.6625C17.4437 24.675 15.35 22.5938 15.3375 20.0188C15.325 17.4438 17.4063 15.35 19.9813 15.3375ZM25.8188 12.5188C25.8188 11.5938 26.5688 10.8438 27.4937 10.8438C28.4187 10.8438 29.1688 11.5938 29.1688 12.5188C29.1688 13.4438 28.4187 14.1938 27.4937 14.1938C26.5688 14.1938 25.8188 13.4438 25.8188 12.5188ZM33.925 14.2188C33.8187 11.975 33.3062 9.98751 31.6625 8.35001C30.025 6.71251 28.0375 6.20001 25.7938 6.08751C23.4813 5.95626 16.55 5.95626 14.2375 6.08751C12 6.19376 10.0125 6.70626 8.36875 8.34376C6.725 9.98126 6.21875 11.9688 6.10625 14.2125C5.975 16.525 5.975 23.4563 6.10625 25.7688C6.2125 28.0125 6.725 30 8.36875 31.6375C10.0125 33.275 11.9938 33.7875 14.2375 33.9C16.55 34.0313 23.4813 34.0313 25.7938 33.9C28.0375 33.7938 30.025 33.2813 31.6625 31.6375C33.3 30 33.8125 28.0125 33.925 25.7688C34.0562 23.4563 34.0562 16.5313 33.925 14.2188ZM30.9375 28.25C30.45 29.475 29.5063 30.4188 28.275 30.9125C26.4312 31.6438 22.0562 31.475 20.0187 31.475C17.9812 31.475 13.6 31.6375 11.7625 30.9125C10.5375 30.425 9.59375 29.4813 9.1 28.25C8.36875 26.4063 8.5375 22.0313 8.5375 19.9938C8.5375 17.9563 8.375 13.575 9.1 11.7375C9.5875 10.5125 10.5312 9.56876 11.7625 9.07501C13.6062 8.34376 17.9812 8.51251 20.0187 8.51251C22.0562 8.51251 26.4375 8.35001 28.275 9.07501C29.5 9.56251 30.4438 10.5063 30.9375 11.7375C31.6688 13.5813 31.5 17.9563 31.5 19.9938C31.5 22.0313 31.6688 26.4125 30.9375 28.25Z" fill="#202020"/>
</svg>
