<svg width="13" height="16" viewBox="0 0 13 16" fill="none" xmlns="http://www.w3.org/2000/svg">
<path d="M6.50183 7.8C6.89332 7.8 7.22787 7.66273 7.50547 7.3882C7.78307 7.11367 7.92188 6.78367 7.92188 6.3982C7.92188 6.01273 7.78246 5.68333 7.50364 5.41C7.22482 5.13667 6.88966 5 6.49817 5C6.10668 5 5.77214 5.13727 5.49453 5.4118C5.21693 5.68633 5.07812 6.01633 5.07812 6.4018C5.07812 6.78727 5.21754 7.11667 5.49636 7.39C5.77518 7.66333 6.11034 7.8 6.50183 7.8ZM6.5 14.42C8.30104 12.8067 9.63151 11.3433 10.4914 10.03C11.3513 8.71667 11.7812 7.56 11.7812 6.56C11.7812 4.98947 11.2715 3.70347 10.2519 2.702C9.23237 1.70067 7.98173 1.2 6.5 1.2C5.01827 1.2 3.76763 1.70067 2.74808 2.702C1.72853 3.70347 1.21875 4.98947 1.21875 6.56C1.21875 7.56 1.65885 8.71667 2.53906 10.03C3.41927 11.3433 4.73958 12.8067 6.5 14.42ZM6.5 16C4.31979 14.1733 2.69141 12.4767 1.61484 10.91C0.538281 9.34333 0 7.89333 0 6.56C0 4.56 0.653385 2.96667 1.96016 1.78C3.26693 0.593333 4.78021 0 6.5 0C8.21979 0 9.73307 0.593333 11.0398 1.78C12.3466 2.96667 13 4.56 13 6.56C13 7.89333 12.4617 9.34333 11.3852 10.91C10.3086 12.4767 8.68021 14.1733 6.5 16Z" fill="white"/>
</svg>
