<svg width="89" height="89" viewBox="0 0 89 89" fill="none" xmlns="http://www.w3.org/2000/svg">
<path d="M81.0889 43.6976C80.6769 33.7402 77.0097 25.3051 70.0875 18.3925C63.1653 11.4799 54.7185 7.81785 44.7472 7.40638V0C50.6806 0.164586 56.2637 1.41956 61.4965 3.76491C66.7294 6.11026 71.3236 9.25798 75.2792 13.208C79.2347 17.1581 82.3868 21.746 84.7354 26.9716C87.084 32.1972 88.3407 37.7725 88.5056 43.6976H81.0889ZM60.1986 43.6976C59.7866 39.583 58.1384 36.1061 55.2542 33.267C52.3699 30.4279 48.8676 28.8026 44.7472 28.3911V20.9847C50.9278 21.3962 56.1812 23.7416 60.5076 28.0208C64.834 32.3 67.2032 37.5257 67.6153 43.6976H60.1986ZM83.4375 89C73.8782 89 64.1336 86.6958 54.2035 82.0874C44.2734 77.479 35.0644 70.9367 26.5764 62.4605C18.0884 53.9843 11.537 44.788 6.92222 34.8717C2.30741 24.9554 0 15.2242 0 5.67822C0 4.09079 0.52988 2.76834 1.58964 1.71087C2.64857 0.652583 3.97286 0.12344 5.5625 0.12344H22.8681C24.0218 0.12344 25.0106 0.534905 25.8347 1.35784C26.6588 2.18077 27.2356 3.20943 27.5653 4.44383L30.8941 19.9528C31.0647 21.1345 31.047 22.1986 30.841 23.1449C30.635 24.0913 30.1928 24.9031 29.5146 25.5804L17.1819 38.0194C19.3245 41.6403 21.5907 45.0143 23.9806 48.1415C26.3704 51.2686 29.0074 54.2312 31.8917 57.0291C34.9407 60.1563 38.1546 63.016 41.5333 65.6082C44.912 68.2004 48.4556 70.484 52.1639 72.4591L63.9069 60.362C64.731 59.4568 65.6849 58.8396 66.7685 58.5104C67.8522 58.1812 68.9173 58.0989 69.9639 58.2635L84.6736 61.473C85.9097 61.8021 86.9398 62.4621 87.7639 63.4529C88.588 64.4446 89 65.5539 89 66.7809V83.4452C89 85.0326 88.4701 86.3551 87.4104 87.4126C86.3514 88.4709 85.0271 89 83.4375 89ZM13.4736 31.2302L23.4861 21.1082L20.6431 7.52982H7.41667C7.58148 10.9861 8.13773 14.6276 9.08542 18.4542C10.0331 22.2809 11.4958 26.5395 13.4736 31.2302ZM59.0861 76.0388C62.4648 77.6024 66.1319 78.8779 70.0875 79.8655C74.0431 80.853 77.875 81.429 81.5833 81.5936V68.3856L68.8514 65.7933L59.0861 76.0388Z" fill="black"/>
</svg>
