<svg width="36" height="36" viewBox="0 0 36 36" fill="none" xmlns="http://www.w3.org/2000/svg">
<path d="M30.6282 15.4069C28.1532 15.4125 25.7344 14.6419 23.7207 13.2019V23.2538C23.7207 25.1156 23.1526 26.9325 22.0894 28.4625C21.0263 29.9925 19.5244 31.1625 17.7807 31.815C16.0369 32.4675 14.1357 32.5744 12.3301 32.1131C10.5244 31.6519 8.90445 30.6563 7.6782 29.2556C6.45195 27.855 5.69257 26.1056 5.48445 24.255C5.27632 22.4044 5.64757 20.5369 6.5307 18.9C7.41382 17.2631 8.7807 15.9356 10.4457 15.0919C12.1107 14.2481 13.9838 13.9388 15.8288 14.1919V19.2488C14.9851 18.9844 14.0794 18.99 13.2413 19.2713C12.4032 19.5525 11.6719 20.0925 11.1601 20.8069C10.6482 21.5213 10.3726 22.3875 10.3782 23.2763C10.3838 24.165 10.6707 25.02 11.1938 25.7344C11.7169 26.4488 12.4538 26.9775 13.2976 27.2475C14.1413 27.5175 15.0469 27.5175 15.8851 27.2419C16.7232 26.9663 17.4601 26.4319 17.9776 25.7175C18.4951 25.0031 18.7763 24.1369 18.7763 23.2538V3.60001H23.7263C23.7207 4.01626 23.7601 4.43813 23.8332 4.84876C24.0076 5.76563 24.3619 6.64313 24.8851 7.41938C25.4082 8.19563 26.0832 8.85938 26.8651 9.36563C27.9844 10.1025 29.2951 10.4963 30.6338 10.4963V15.4125L30.6282 15.4069Z" fill="#202020"/>
</svg>
