<svg width="17" height="16" viewBox="0 0 17 16" fill="none" xmlns="http://www.w3.org/2000/svg">
<path d="M15.3252 16L9.5668 10.43L10.8745 9.16505L16.6329 14.7351L15.3252 16ZM1.99595 16L0.688259 14.7351L7.34143 8.29958L4.88664 5.9251L4.35897 6.43551L3.34953 5.45908V7.34535L2.79892 7.87795L0 5.1706L0.550607 4.638H2.52362L1.4224 3.57282L4.4278 0.665742C4.68781 0.41424 4.97076 0.244105 5.27665 0.15534C5.58255 0.0665742 5.91903 0.0221914 6.2861 0.0221914C6.65317 0.0221914 6.98965 0.085067 7.29555 0.210818C7.60144 0.33657 7.88439 0.525197 8.1444 0.776699L5.68961 3.15118L6.79082 4.21637L6.24022 4.74896L8.62618 7.05687L11.4251 4.34951C11.3027 4.15719 11.2072 3.93528 11.1383 3.68377C11.0695 3.43227 11.0351 3.16597 11.0351 2.88488C11.0351 2.10079 11.3295 1.42395 11.9184 0.854369C12.5072 0.28479 13.2069 0 14.0175 0C14.247 0 14.442 0.0221914 14.6026 0.0665742C14.7632 0.110957 14.897 0.170134 15.004 0.244105L13.054 2.13037L14.7746 3.79473L16.7247 1.90846C16.8012 2.02681 16.8662 2.17106 16.9197 2.34119C16.9732 2.51133 17 2.70735 17 2.92927C17 3.71336 16.7056 4.3902 16.1167 4.95978C15.5279 5.52936 14.8282 5.81415 14.0175 5.81415C13.7422 5.81415 13.5052 5.79565 13.3063 5.75867C13.1075 5.72168 12.924 5.6662 12.7557 5.59223L1.99595 16Z" fill="white"/>
</svg>
