<svg width="91" height="103" viewBox="0 0 91 103" fill="none" xmlns="http://www.w3.org/2000/svg">
<path d="M82.0351 102.75L51.2105 66.9799L58.2105 58.8568L89.0351 94.6269L82.0351 102.75ZM10.6842 102.75L3.68421 94.6269L39.2982 53.2989L26.1579 38.0503L23.3333 41.328L17.9298 35.0576V47.1709L14.9825 50.5912L0 33.2049L2.94737 29.7847H13.5088L7.61404 22.9442L23.7018 4.27531C25.0936 2.66019 26.6082 1.56761 28.2456 0.997573C29.883 0.427531 31.6842 0.14251 33.6491 0.14251C35.614 0.14251 37.4152 0.54629 39.0526 1.35385C40.6901 2.16141 42.2047 3.37275 43.5965 4.98786L30.4561 20.2365L36.3509 27.077L33.4035 30.4972L46.1754 45.3183L61.1579 27.932C60.5029 26.6969 59.9912 25.2718 59.6228 23.6567C59.2544 22.0416 59.0702 20.3315 59.0702 18.5264C59.0702 13.491 60.6462 9.14442 63.7982 5.48665C66.9503 1.82888 70.6959 0 75.0351 0C76.2632 0 77.307 0.14251 78.1667 0.427531C79.0263 0.712552 79.7427 1.09258 80.3158 1.56761L69.8772 13.681L79.0877 24.3693L89.5263 12.2559C89.9357 13.016 90.2836 13.9423 90.5702 15.0348C90.8567 16.1274 91 17.3863 91 18.8114C91 23.8467 89.424 28.1933 86.2719 31.8511C83.1199 35.5088 79.3743 37.3377 75.0351 37.3377C73.5614 37.3377 72.2924 37.219 71.2281 36.9814C70.1637 36.7439 69.1813 36.3877 68.2807 35.9126L10.6842 102.75Z" fill="black"/>
</svg>
